<svg xmlns="http://www.w3.org/2000/svg" xmlns:xlink="http://www.w3.org/1999/xlink" width="500" zoomAndPan="magnify" viewBox="0 0 375 374.999991" height="500" preserveAspectRatio="xMidYMid meet" version="1.0"><defs><clipPath id="3cdf753f7b"><path d="M 344 203 L 345.566406 203 L 345.566406 209 L 344 209 Z M 344 203 " clip-rule="nonzero"/></clipPath><clipPath id="42ccb42b9b"><path d="M 0 3 L 345.566406 3 L 345.566406 239 L 0 239 Z M 0 3 " clip-rule="nonzero"/></clipPath></defs><g clip-path="url(#3cdf753f7b)"><path fill="#908b89" d="M 345.316406 208.925781 C 344.414062 207.257812 345.078125 205.480469 344.957031 203.753906 C 345.082031 203.722656 345.203125 203.738281 345.316406 203.808594 C 345.316406 205.511719 345.316406 207.21875 345.316406 208.925781 Z M 345.316406 208.925781 " fill-opacity="1" fill-rule="evenodd"/></g><g clip-path="url(#42ccb42b9b)"><path fill="#231815" d="M 90.628906 206.316406 C 89.890625 219.183594 82.414062 227.40625 71.476562 232.492188 C 52.320312 241.394531 33.199219 240.894531 14.78125 230.175781 C 7.507812 225.945312 2.363281 219.71875 0.417969 211.242188 C 0.351562 210.957031 0.289062 210.703125 -0.0429688 210.632812 C -0.0429688 207.789062 -0.0429688 204.945312 -0.0429688 202.101562 C 0.890625 201.28125 0.699219 200.050781 1.027344 199.019531 C 3.929688 189.863281 9.949219 183.179688 17.699219 177.890625 C 22.117188 174.875 26.9375 172.667969 32.128906 171.332031 C 33.25 171.042969 33.734375 170.703125 33.5 169.351562 C 28.488281 140.46875 34.0625 113.671875 49.605469 88.933594 C 50.914062 86.84375 50.84375 85.769531 49.195312 83.847656 C 37.699219 70.40625 36.332031 55.273438 43.847656 39.796875 C 53.589844 19.75 69.808594 7.230469 91.980469 4.078125 C 109.515625 1.589844 127.03125 8.558594 136.597656 27.550781 C 137.410156 29.160156 138.183594 29.597656 139.953125 29.25 C 161.820312 24.914062 183.628906 25.335938 205.316406 30.460938 C 207.394531 30.953125 208.246094 30.6875 209.199219 28.648438 C 219.980469 5.648438 242.929688 0.0859375 261.464844 5.429688 C 280.648438 10.960938 294.953125 22.800781 303.140625 41.179688 C 310.910156 58.628906 306.878906 75.730469 292.640625 88.445312 C 291.199219 89.730469 291.046875 90.519531 292.039062 92.199219 C 303.832031 112.09375 309.0625 133.628906 307.734375 156.726562 C 307.511719 160.617188 306.960938 164.5 306.34375 168.351562 C 306.117188 169.757812 306.488281 169.941406 307.726562 170.167969 C 322.253906 172.847656 333.875 179.921875 341.464844 192.914062 C 343.414062 196.242188 344.625 199.871094 344.953125 203.753906 C 345.402344 205.457031 344.734375 207.234375 345.3125 208.925781 C 345.3125 209.210938 345.3125 209.492188 345.3125 209.777344 C 345.199219 209.84375 344.996094 209.886719 344.976562 209.972656 C 342.703125 221.292969 335.359375 228.550781 325.320312 232.898438 C 305.203125 241.609375 285.453125 240.914062 266.941406 228.421875 C 259.300781 223.265625 254.78125 215.859375 254.542969 206.296875 C 253.84375 205.40625 254.082031 204.40625 254.238281 203.433594 C 256.023438 192.34375 262.347656 184.28125 271.242188 177.96875 C 277.730469 173.363281 284.988281 170.675781 292.828125 169.484375 C 296.15625 168.980469 296.15625 168.949219 296.773438 165.667969 C 298.144531 158.359375 297.96875 150.96875 297.875 143.589844 C 297.875 143.375 297.8125 143.175781 297.476562 142.96875 C 296.015625 143.945312 294.765625 145.289062 293.339844 146.402344 C 286.503906 151.71875 279.027344 155.570312 270.355469 156.835938 C 266.335938 157.421875 262.324219 157.519531 258.300781 156.941406 C 254.835938 156.445312 252.886719 154.144531 253.265625 151.03125 C 253.644531 147.875 256.03125 146.0625 259.820312 146.609375 C 266.019531 147.507812 271.84375 146.3125 277.441406 143.855469 C 284.601562 140.714844 290.328125 135.675781 295.269531 129.683594 C 295.660156 129.210938 295.816406 128.691406 295.679688 128.101562 C 294.390625 122.503906 292.921875 116.964844 290.464844 111.417969 C 280.730469 120.296875 270.082031 127.300781 257.734375 131.488281 C 255.683594 132.273438 253.574219 132.871094 251.433594 133.324219 C 248.28125 133.992188 245.464844 132.222656 244.828125 129.234375 C 244.269531 126.601562 246.171875 123.828125 249.089844 123.089844 C 250.046875 122.84375 251 122.585938 251.945312 122.296875 C 260.683594 119.84375 268.417969 115.433594 275.628906 110.03125 C 278.527344 107.863281 281.253906 105.480469 283.941406 103.050781 C 285.308594 101.808594 285.523438 100.644531 284.546875 98.960938 C 275.90625 84.035156 264.507812 71.660156 250.535156 61.605469 C 232.714844 48.785156 212.808594 41.207031 191.226562 37.804688 C 186.882812 37.117188 182.492188 36.796875 178.121094 36.394531 C 175.402344 36.140625 175.140625 36.429688 175.128906 39.074219 C 175.121094 40.355469 175.121094 41.632812 175.128906 42.914062 C 175.148438 45.667969 175.308594 45.796875 177.996094 45.863281 C 186.703125 46.082031 195.222656 47.386719 203.464844 50.292969 C 204.472656 50.648438 205.46875 51.011719 206.335938 51.65625 C 208.363281 53.164062 209.082031 55.441406 208.222656 57.671875 C 207.28125 60.136719 205.363281 61.316406 202.703125 61.007812 C 201 60.808594 199.429688 60.097656 197.808594 59.570312 C 191.347656 57.453125 184.703125 56.507812 177.929688 56.40625 C 175.15625 56.363281 175.136719 56.429688 175.128906 59.296875 C 175.125 60.789062 175.191406 62.285156 175.109375 63.773438 C 175.03125 65.320312 175.65625 65.835938 177.207031 65.945312 C 183.144531 66.367188 189.097656 66.699219 194.929688 68.042969 C 198.046875 68.761719 201.117188 69.628906 204.121094 70.726562 C 205.832031 71.355469 207.28125 72.300781 208.070312 74.0625 C 209.601562 77.488281 207.367188 81.046875 203.625 81.128906 C 202.25 81.15625 200.945312 80.859375 199.675781 80.386719 C 192.953125 77.878906 185.902344 77.101562 178.828125 76.460938 C 178.476562 76.429688 178.121094 76.4375 177.765625 76.441406 C 175.425781 76.464844 175.164062 76.695312 175.136719 78.972656 C 175.101562 81.320312 175.15625 83.664062 175.117188 86.007812 C 175.0625 89.332031 172.929688 91.707031 170.0625 91.691406 C 167.191406 91.675781 165.097656 89.304688 165.039062 85.964844 C 165 83.550781 165.023438 81.132812 165.03125 78.71875 C 165.035156 77.335938 164.460938 76.828125 163.058594 77.011719 C 155.734375 77.957031 148.433594 79.023438 141.328125 81.101562 C 139.007812 81.78125 136.855469 81.820312 135.027344 79.910156 C 132.738281 77.507812 133.171875 73.78125 135.984375 72.003906 C 137.011719 71.351562 138.152344 70.953125 139.328125 70.65625 C 146.628906 68.800781 154.007812 67.382812 161.523438 66.734375 C 164.90625 66.441406 165.03125 66.3125 165.03125 62.882812 C 165.035156 61.53125 164.980469 60.179688 165.042969 58.832031 C 165.125 57.179688 164.296875 56.667969 162.816406 56.859375 C 160.214844 57.195312 157.601562 57.46875 155.011719 57.898438 C 150.464844 58.660156 145.9375 59.53125 141.492188 60.808594 C 139.070312 61.507812 136.652344 61.644531 134.824219 59.476562 C 132.214844 56.378906 133.625 52.273438 137.839844 50.953125 C 141.972656 49.65625 146.210938 48.757812 150.480469 48 C 154.601562 47.269531 158.746094 46.699219 162.917969 46.324219 C 164.429688 46.1875 165.085938 45.601562 165.042969 44.078125 C 164.992188 42.234375 164.953125 40.378906 165.054688 38.535156 C 165.148438 36.835938 164.425781 36.207031 162.800781 36.34375 C 158.277344 36.71875 153.75 37.011719 149.261719 37.679688 C 130.652344 40.460938 113.148438 46.417969 97.074219 56.285156 C 79.640625 66.984375 65.441406 80.949219 55.261719 98.8125 C 52.347656 103.917969 52.210938 103.167969 56.605469 106.882812 C 64.496094 113.554688 73.175781 118.816406 83.074219 121.949219 C 84.523438 122.519531 86.074219 122.75 87.539062 123.253906 C 90.554688 124.292969 91.878906 126.769531 91.054688 129.761719 C 90.324219 132.417969 87.648438 133.945312 84.710938 133.273438 C 82.515625 132.773438 80.300781 132.3125 78.1875 131.496094 C 68.046875 127.898438 58.921875 122.53125 50.652344 115.667969 C 50.320312 115.394531 49.980469 115.144531 49.660156 114.859375 C 48.546875 113.875 48.007812 114.335938 47.546875 115.554688 C 46.835938 117.417969 46.246094 119.3125 45.707031 121.226562 C 44.882812 124.171875 44.164062 127.136719 43.476562 130.113281 C 43.160156 131.507812 43.546875 132.546875 44.523438 133.574219 C 51.390625 140.820312 59.519531 145.621094 69.589844 146.765625 C 71.585938 146.992188 73.542969 146.90625 75.519531 146.636719 C 78.234375 146.265625 80.800781 146.414062 82.34375 149.253906 C 84.089844 152.472656 82.121094 156.300781 78.242188 156.886719 C 70.109375 158.117188 62.277344 156.914062 54.773438 153.601562 C 50.738281 151.820312 46.949219 149.585938 43.445312 146.886719 C 43.015625 146.554688 42.585938 145.894531 42.011719 146.164062 C 41.375 146.464844 41.5 147.28125 41.460938 147.890625 C 41.230469 151.515625 41.839844 155.109375 41.992188 158.722656 C 42.105469 161.402344 42.664062 164.074219 43.03125 166.746094 C 43.273438 168.496094 44.046875 169.164062 45.820312 169.144531 C 57.683594 168.996094 68.082031 173.097656 77.144531 180.542969 C 83.691406 185.921875 88.625 192.519531 90.449219 201.058594 C 90.824219 202.800781 91.015625 204.546875 90.628906 206.316406 Z M 90.628906 206.316406 " fill-opacity="1" fill-rule="evenodd"/></g><path fill="#f8bf01" d="M 294.980469 169.78125 C 296.3125 169.621094 296.699219 169.210938 296.933594 167.945312 C 298.257812 160.792969 298.734375 153.585938 298.492188 146.328125 C 298.441406 144.804688 298.660156 143.242188 298.050781 141.46875 C 295.402344 144.019531 292.78125 146.277344 289.921875 148.226562 C 280.589844 154.605469 270.414062 157.824219 259.027344 156.46875 C 258.324219 156.386719 257.613281 156.292969 256.945312 156.078125 C 254.679688 155.355469 253.425781 153.324219 253.746094 150.96875 C 254.058594 148.652344 255.859375 147.011719 258.277344 147.035156 C 261.035156 147.0625 263.757812 147.628906 266.546875 147.332031 C 277.59375 146.15625 286.082031 140.425781 293.550781 132.605469 C 295.945312 130.097656 296.664062 127.808594 295.511719 124.457031 C 293.914062 119.808594 292.746094 115.015625 290.640625 110.382812 C 280.910156 119.640625 270.035156 126.652344 257.550781 131.066406 C 256.839844 132.003906 256.992188 133.101562 257.023438 134.152344 C 257.15625 139.089844 254.964844 142.925781 251.339844 146.019531 C 244.222656 152.089844 235.832031 153.617188 226.8125 152.636719 C 223.1875 152.242188 219.742188 151.164062 216.4375 149.597656 C 214.542969 148.699219 214.128906 149.003906 214.023438 151.175781 C 213.976562 152.167969 214.101562 153.167969 213.8125 154.140625 C 213.148438 160.28125 211.035156 165.855469 207.398438 170.855469 C 202.03125 178.238281 194.792969 183 186.296875 186.011719 C 185.257812 186.667969 184.566406 187.6875 183.71875 188.535156 C 175.882812 196.359375 162.835938 196.808594 154.457031 189.605469 C 153.046875 188.394531 152.113281 186.742188 150.539062 185.730469 C 142.777344 183.179688 136.339844 178.636719 131.1875 172.363281 C 125.640625 165.609375 123.195312 157.742188 123.535156 149.011719 C 123.1875 147.183594 122.117188 147.820312 121.179688 148.375 C 115.386719 151.8125 109.105469 153.238281 102.425781 152.894531 C 95.359375 152.523438 88.835938 150.535156 83.558594 145.621094 C 80.355469 142.636719 78.257812 138.976562 78.441406 134.339844 C 78.484375 133.222656 78.691406 132.066406 78.273438 130.960938 C 67.484375 127.058594 57.820312 121.246094 49.195312 113.695312 C 48.113281 112.746094 47.808594 113.089844 47.390625 114.226562 C 45.367188 119.769531 43.871094 125.445312 42.691406 131.21875 C 42.511719 132.109375 42.78125 132.675781 43.355469 133.292969 C 48.324219 138.601562 54.035156 142.835938 60.902344 145.339844 C 65.6875 147.082031 70.613281 147.898438 75.726562 147.171875 C 77.039062 146.984375 78.390625 146.769531 79.703125 147.371094 C 81.632812 148.257812 82.804688 150.371094 82.449219 152.410156 C 82.035156 154.773438 80.300781 156.109375 77.402344 156.460938 C 66.019531 157.835938 55.8125 154.734375 46.464844 148.351562 C 44.738281 147.171875 43.089844 145.882812 41.234375 144.519531 C 40.6875 152.613281 41.40625 160.359375 42.703125 168.074219 C 42.902344 169.246094 43.3125 169.632812 44.636719 169.574219 C 47.390625 169.441406 50.152344 169.691406 52.894531 170.101562 C 71.734375 172.914062 90.214844 188.410156 90.628906 206.3125 C 145.269531 206.304688 199.90625 206.300781 254.542969 206.292969 C 254.746094 200.152344 256.730469 194.59375 260.289062 189.644531 C 268.828125 177.773438 280.636719 171.503906 294.980469 169.78125 Z M 294.980469 169.78125 " fill-opacity="1" fill-rule="evenodd"/><path fill="#f8bf01" d="M 52.953125 101.730469 C 52.234375 103.074219 52.179688 103.855469 53.425781 104.917969 C 55.914062 107.03125 58.363281 109.195312 61.007812 111.109375 C 67.765625 115.996094 74.898438 120.164062 83.003906 122.425781 C 84.105469 122.71875 84.882812 122.03125 85.707031 121.515625 C 87.078125 120.648438 88.371094 119.65625 89.882812 119.015625 C 100.507812 114.550781 110.917969 114.871094 121.101562 120.394531 C 122.246094 120.664062 123.464844 120.511719 123.800781 119.371094 C 124.15625 118.144531 122.777344 117.894531 121.957031 117.425781 C 121.652344 117.25 121.296875 117.164062 120.976562 117.015625 C 117.195312 115.234375 113.3125 113.667969 109.597656 111.757812 C 107.292969 110.574219 106.546875 108.503906 107.449219 106.65625 C 108.398438 104.710938 110.621094 104.054688 112.945312 105.128906 C 120.019531 108.394531 127.117188 111.613281 134.191406 114.875 C 136.015625 115.71875 138.003906 116.457031 138.058594 118.890625 C 138.113281 121.523438 136.019531 122.300781 134.085938 123.300781 C 132.105469 124.324219 129.78125 124.820312 128.320312 126.722656 C 128.554688 128.378906 128.691406 130.070312 130.300781 131.097656 C 131.171875 131.03125 131.683594 130.429688 132.171875 129.816406 C 134.808594 126.484375 138.132812 123.925781 141.710938 121.761719 C 152.703125 115.109375 164.648438 113.039062 177.273438 115.015625 C 187.398438 116.605469 196.402344 120.609375 203.617188 128.140625 C 204.152344 128.699219 204.691406 129.289062 205.53125 129.398438 C 207.414062 128.246094 208.121094 126.320312 208.839844 124.398438 C 208.496094 123.394531 207.535156 123.148438 206.738281 122.730469 C 205.121094 121.882812 204.011719 120.765625 204.058594 118.765625 C 204.101562 116.886719 205.3125 116.019531 206.796875 115.339844 C 210.789062 113.507812 214.785156 111.679688 218.777344 109.847656 C 222.125 108.308594 225.445312 106.707031 228.847656 105.296875 C 231.695312 104.117188 233.605469 104.59375 234.550781 106.589844 C 235.582031 108.773438 234.722656 110.574219 231.964844 111.976562 C 230.699219 112.617188 229.425781 113.242188 228.125 113.804688 C 227.386719 114.121094 226.429688 114.304688 226.445312 115.433594 C 228 116.691406 229.839844 116.097656 231.53125 116.074219 C 238.390625 115.976562 244.609375 117.8125 250.160156 121.871094 C 250.742188 122.292969 251.367188 122.578125 252.054688 122.761719 C 252.265625 122.75 252.488281 122.777344 252.6875 122.714844 C 265.347656 118.742188 275.992188 111.523438 285.4375 102.351562 C 286.390625 101.421875 286.136719 100.679688 285.613281 99.746094 C 279.589844 89.011719 272.085938 79.441406 263.039062 71.097656 C 245.136719 54.582031 224.089844 44.179688 200.417969 38.933594 C 192.441406 37.167969 184.351562 36.199219 176.195312 35.816406 C 175.511719 35.785156 174.609375 35.382812 174.675781 36.820312 C 174.796875 39.519531 174.761719 42.222656 174.71875 44.921875 C 174.703125 46.027344 175.105469 46.367188 176.207031 46.398438 C 179.179688 46.480469 182.160156 46.601562 185.125 46.878906 C 191.851562 47.515625 198.429688 48.898438 204.734375 51.40625 C 207.707031 52.589844 208.855469 55.25 207.640625 57.910156 C 206.558594 60.277344 204.035156 61.152344 201.117188 60.058594 C 193.183594 57.085938 184.949219 55.925781 176.535156 55.726562 C 175.164062 55.695312 174.644531 56.050781 174.707031 57.488281 C 174.816406 59.972656 174.78125 62.464844 174.71875 64.949219 C 174.691406 66.09375 174.976562 66.570312 176.242188 66.582031 C 180.925781 66.613281 185.585938 67.007812 190.214844 67.746094 C 195.273438 68.558594 200.203125 69.824219 204.972656 71.6875 C 206.871094 72.429688 207.953125 73.902344 208.082031 75.898438 C 208.207031 77.734375 207.355469 79.222656 205.757812 80.160156 C 204.15625 81.097656 202.511719 80.816406 200.847656 80.191406 C 193.195312 77.308594 185.214844 76.265625 177.097656 75.898438 C 175.296875 75.820312 174.542969 76.210938 174.691406 78.195312 C 174.871094 80.667969 174.746094 83.164062 174.730469 85.652344 C 174.707031 89.003906 172.925781 91.117188 170.125 91.148438 C 167.328125 91.183594 165.457031 89.046875 165.429688 85.75 C 165.40625 83.121094 165.375 80.488281 165.449219 77.859375 C 165.480469 76.65625 165.15625 76.191406 163.886719 76.382812 C 161.433594 76.753906 158.957031 76.957031 156.503906 77.332031 C 150.96875 78.175781 145.492188 79.273438 140.101562 80.828125 C 137.554688 81.5625 135.109375 80.175781 134.296875 77.789062 C 133.515625 75.5 134.660156 72.988281 136.988281 72.015625 C 137.835938 71.660156 138.734375 71.433594 139.625 71.195312 C 147.589844 69.078125 155.699219 67.753906 163.898438 67.011719 C 165.066406 66.902344 165.507812 66.585938 165.449219 65.375 C 165.359375 63.460938 165.425781 61.539062 165.425781 59.621094 C 165.425781 55.917969 165.433594 55.96875 161.722656 56.414062 C 154.464844 57.292969 147.300781 58.605469 140.242188 60.527344 C 137.371094 61.308594 134.925781 59.925781 134.226562 57.328125 C 133.492188 54.621094 135.027344 52.285156 138.230469 51.382812 C 146.507812 49.046875 154.941406 47.546875 163.511719 46.890625 C 165.152344 46.765625 165.519531 46.183594 165.457031 44.691406 C 165.351562 42.207031 165.316406 39.710938 165.480469 37.234375 C 165.566406 35.867188 165.0625 35.675781 163.949219 35.773438 C 160.699219 36.054688 157.441406 36.234375 154.199219 36.574219 C 132.847656 38.816406 113.003906 45.519531 94.863281 57.042969 C 77.082031 68.328125 62.910156 83.046875 52.953125 101.730469 Z M 52.953125 101.730469 " fill-opacity="1" fill-rule="evenodd"/><path fill="#f8bf01" d="M 218.867188 34.34375 C 245.371094 43.421875 267.570312 58.601562 284.621094 81.035156 C 285.375 82.035156 285.777344 82.03125 286.675781 81.230469 C 297.15625 71.902344 300.289062 59.351562 295.125 46.265625 C 290.445312 34.414062 281.957031 25.878906 271.128906 19.554688 C 264.296875 15.5625 256.992188 13.046875 251.355469 13.027344 C 234.863281 13.167969 224.433594 19.335938 217.921875 32.003906 C 217.207031 33.394531 217.402344 33.84375 218.867188 34.34375 Z M 218.867188 34.34375 " fill-opacity="1" fill-rule="evenodd"/><path fill="#f8bf01" d="M 43.566406 177.757812 C 31.441406 178.175781 21.351562 183.144531 13.617188 192.535156 C 5.859375 201.949219 6.238281 212.097656 14.429688 219.738281 C 16.40625 221.585938 18.574219 223.1875 20.96875 224.464844 C 21.402344 224.695312 21.804688 225.257812 22.472656 224.855469 C 22.132812 224.046875 21.769531 223.277344 21.472656 222.484375 C 19.90625 218.335938 19.300781 214.101562 20.574219 209.765625 C 21.265625 207.402344 23.214844 206.269531 25.265625 206.878906 C 27.246094 207.464844 28.226562 209.332031 27.578125 211.671875 C 26.902344 214.105469 27.148438 216.445312 27.875 218.792969 C 28.644531 221.261719 30.082031 223.363281 31.429688 225.542969 C 33.363281 228.671875 36.039062 230.097656 39.660156 230.203125 C 41.039062 230.242188 41.308594 229.886719 41.292969 228.601562 C 41.230469 222.773438 41.257812 216.945312 41.269531 211.117188 C 41.277344 208.175781 42.839844 206.351562 45.28125 206.378906 C 47.652344 206.40625 49.097656 208.136719 49.109375 211.035156 C 49.125 216.292969 49.113281 221.554688 49.113281 226.816406 C 49.113281 230.640625 49.277344 230.75 52.996094 229.851562 C 53.617188 229.703125 53.964844 229.332031 54.359375 228.929688 C 56.410156 226.839844 58.210938 224.550781 59.53125 221.933594 C 61.15625 218.714844 62.261719 215.390625 61.167969 211.695312 C 60.496094 209.425781 61.464844 207.484375 63.410156 206.878906 C 65.453125 206.238281 67.402344 207.355469 68.113281 209.695312 C 68.78125 211.882812 69.003906 214.117188 68.757812 216.425781 C 68.390625 219.847656 67.183594 222.984375 65.5 226.371094 C 69.75 224.621094 73.210938 222.394531 76.234375 219.46875 C 78.136719 217.625 79.769531 215.578125 80.867188 213.148438 C 84.128906 205.925781 82.070312 199.414062 77.617188 193.628906 C 69.066406 182.511719 57.523438 177.28125 43.566406 177.757812 Z M 43.566406 177.757812 " fill-opacity="1" fill-rule="evenodd"/><path fill="#f8bf01" d="M 332.257812 193.640625 C 321.9375 180.539062 308.214844 175.5625 291.929688 178.484375 C 281.179688 180.417969 272.371094 185.964844 266.328125 195.273438 C 259.003906 206.550781 264.21875 220.941406 277.105469 224.945312 C 276.730469 224 276.386719 223.183594 276.082031 222.347656 C 274.523438 218.042969 273.902344 213.675781 275.460938 209.234375 C 276.148438 207.265625 277.980469 206.351562 279.863281 206.855469 C 281.703125 207.351562 282.75 209.128906 282.363281 211.1875 C 282.183594 212.160156 281.871094 213.089844 281.84375 214.109375 C 281.746094 218.390625 283.65625 221.886719 285.9375 225.296875 C 287.898438 228.21875 290.25 230.203125 294.03125 230.171875 C 295.46875 230.164062 295.984375 230.054688 295.953125 228.460938 C 295.855469 222.707031 295.910156 216.949219 295.917969 211.195312 C 295.925781 208.222656 297.417969 206.410156 299.847656 206.378906 C 302.292969 206.351562 303.75 208.105469 303.761719 211.148438 C 303.777344 216.40625 303.765625 221.664062 303.765625 226.921875 C 303.765625 230.390625 304.617188 230.984375 307.949219 229.761719 C 308.386719 229.597656 308.78125 229.234375 309.113281 228.882812 C 310.96875 226.917969 312.679688 224.824219 313.945312 222.425781 C 315.800781 218.90625 317.042969 215.289062 315.714844 211.207031 C 315.125 209.402344 316.269531 207.535156 317.972656 206.933594 C 319.804688 206.289062 321.761719 207.109375 322.550781 208.96875 C 323.253906 210.617188 323.492188 212.382812 323.523438 214.167969 C 323.597656 218.433594 322.238281 222.339844 320.125 226.453125 C 325.84375 223.898438 330.527344 220.738281 333.914062 215.890625 C 334.558594 214.96875 335.128906 213.964844 335.582031 212.9375 C 338.765625 205.777344 336.714844 199.292969 332.257812 193.640625 Z M 332.257812 193.640625 " fill-opacity="1" fill-rule="evenodd"/><path fill="#f8bf01" d="M 58.570312 76.488281 C 61.34375 73.0625 64.328125 69.832031 67.480469 66.761719 C 84.261719 50.378906 104.058594 39.175781 126.460938 32.515625 C 128.195312 31.996094 128.183594 31.542969 127.390625 30.152344 C 119.519531 16.332031 106.605469 11.195312 92.722656 13.460938 C 72.84375 16.710938 58.5625 28.265625 50.976562 47.070312 C 46.414062 58.382812 48.488281 69.082031 56.859375 78.488281 C 57.480469 77.761719 58.042969 77.140625 58.570312 76.488281 Z M 58.570312 76.488281 " fill-opacity="1" fill-rule="evenodd"/><path fill="#f4a33c" d="M 128.519531 126.652344 C 127.71875 126.015625 127.015625 126.578125 126.367188 126.914062 C 123.289062 128.523438 120.027344 129.742188 116.964844 131.386719 C 115.464844 132.195312 113.886719 132.847656 112.292969 133.425781 C 109.859375 134.3125 107.875 133.34375 107.207031 131.089844 C 106.695312 129.355469 107.585938 127.660156 109.601562 126.644531 C 112.894531 124.984375 116.25 123.464844 119.574219 121.882812 C 120.300781 121.535156 121.234375 121.328125 121.390625 120.289062 C 121.101562 119.992188 120.863281 119.597656 120.511719 119.414062 C 111.011719 114.453125 101.25 114.238281 91.253906 117.757812 C 88.210938 118.832031 85.855469 121.050781 83.003906 122.425781 C 84.398438 123.140625 85.960938 123.292969 87.433594 123.746094 C 90.039062 124.554688 91.359375 126.984375 90.65625 129.597656 C 90.019531 131.96875 87.550781 133.417969 85 132.796875 C 82.742188 132.25 80.511719 131.578125 78.269531 130.960938 C 76.785156 136.855469 78.675781 141.875 82.902344 145.800781 C 90.121094 152.511719 98.996094 154.253906 108.535156 153.25 C 113.378906 152.742188 117.902344 151.191406 121.992188 148.46875 C 122.945312 147.835938 123.019531 148.519531 123.066406 149.214844 C 123.996094 149.140625 123.910156 148.371094 123.960938 147.789062 C 124.441406 142.5 126.386719 137.777344 129.355469 133.425781 C 129.863281 132.683594 130.546875 131.976562 130.328125 130.9375 C 129.726562 129.507812 129.125 128.082031 128.519531 126.652344 Z M 128.519531 126.652344 " fill-opacity="1" fill-rule="evenodd"/><path fill="#f4a33c" d="M 257.550781 131.066406 C 255.445312 131.648438 253.359375 132.296875 251.230469 132.800781 C 248.464844 133.453125 246.023438 131.925781 245.398438 129.269531 C 244.824219 126.796875 246.40625 124.351562 249.027344 123.648438 C 250.042969 123.375 251.046875 123.054688 252.054688 122.757812 C 247.152344 118.183594 241.179688 116.171875 234.65625 115.539062 C 231.929688 115.273438 229.164062 115.84375 226.4375 115.25 C 223.339844 115.296875 220.929688 117.140625 218.339844 118.464844 C 217.5625 118.863281 218.011719 119.585938 218.613281 119.976562 C 219.867188 120.78125 221.238281 121.367188 222.59375 121.972656 C 226.015625 123.503906 229.394531 125.132812 232.757812 126.78125 C 234.617188 127.6875 235.261719 129.425781 234.738281 131.226562 C 234.257812 132.882812 232.679688 133.855469 230.757812 133.695312 C 229.816406 133.621094 228.992188 133.214844 228.167969 132.808594 C 222.902344 130.203125 217.515625 127.867188 212.230469 125.304688 C 211.140625 124.777344 210.046875 123.902344 208.660156 124.410156 C 207.652344 126 206.640625 127.59375 205.632812 129.1875 C 205.4375 130.253906 206.222656 130.894531 206.757812 131.597656 C 211.277344 137.5625 213.796875 144.1875 213.597656 151.757812 C 213.574219 152.640625 213.367188 153.636719 214.261719 154.3125 C 215.03125 152.800781 214.25 151.117188 214.726562 149.582031 C 214.925781 149.582031 215.085938 149.53125 215.195312 149.585938 C 223.476562 153.882812 232.125 154.605469 241.058594 152.167969 C 245.839844 150.867188 249.972656 148.449219 253.441406 144.816406 C 257.191406 140.894531 257.988281 136.191406 257.550781 131.066406 Z M 257.550781 131.066406 " fill-opacity="1" fill-rule="evenodd"/><path fill="#fafeed" d="M 205.632812 129.191406 C 211.753906 136.449219 214.855469 144.746094 214.261719 154.316406 C 212.703125 171.539062 198.277344 182.863281 186.441406 186.402344 C 186.332031 186.214844 186.21875 185.972656 186.324219 185.800781 C 188.183594 182.835938 189.03125 179.300781 191.859375 176.863281 C 195.910156 173.363281 197.789062 168.601562 198.609375 163.445312 C 198.921875 161.46875 199.753906 160.085938 201.246094 158.820312 C 204.773438 155.820312 207.175781 152.148438 207.210938 147.308594 C 207.242188 144.152344 206.703125 143.53125 203.570312 142.90625 C 203.21875 142.835938 202.875 142.765625 202.558594 142.589844 C 201.765625 142.019531 201.582031 141.066406 201.117188 140.285156 C 197.5625 134.3125 192.042969 131.671875 185.386719 131.039062 C 183.289062 130.839844 181.171875 131.125 179.0625 131.039062 C 172.074219 127.988281 165.09375 127.855469 158.125 131.117188 C 156.15625 131.5625 154.203125 130.941406 152.226562 130.984375 C 144.148438 131.171875 137.855469 134.277344 134.078125 141.710938 C 133.914062 142.03125 133.703125 142.3125 133.425781 142.539062 C 129.925781 143.945312 129.503906 144.6875 129.949219 148.492188 C 130.457031 152.839844 132.664062 156.238281 135.964844 158.921875 C 137.519531 160.183594 138.28125 161.65625 138.554688 163.59375 C 139.332031 169.144531 141.898438 173.714844 145.9375 177.636719 C 148.296875 179.929688 149.628906 183.019531 150.503906 186.230469 C 138.273438 182.445312 122.707031 169.925781 123.085938 150.921875 C 123.097656 150.355469 123.074219 149.785156 123.070312 149.21875 C 123.738281 143.902344 125.183594 138.847656 128.121094 134.304688 C 128.847656 133.175781 129.59375 132.058594 130.328125 130.9375 C 137.808594 122.050781 147.34375 116.621094 158.707031 114.722656 C 176.6875 111.722656 192.617188 115.839844 205.632812 129.191406 Z M 205.632812 129.191406 " fill-opacity="1" fill-rule="evenodd"/><path fill="#feeab2" d="M 202.703125 142.546875 C 201.179688 143.394531 200.199219 144.601562 200.179688 146.417969 C 200.148438 149.441406 198.589844 151.644531 196.367188 153.445312 C 191.042969 157.75 182.003906 157.824219 176.550781 153.640625 C 174.070312 151.734375 172.558594 149.328125 172.402344 146.105469 C 172.292969 143.886719 170.648438 142.398438 168.542969 142.394531 C 166.546875 142.390625 164.828125 143.84375 164.730469 145.917969 C 164.515625 150.328125 162.121094 153.269531 158.339844 154.929688 C 152.910156 157.316406 147.378906 157.574219 142.085938 154.371094 C 139.160156 152.597656 137.121094 150.140625 136.929688 146.558594 C 136.800781 144.136719 135.574219 142.785156 133.257812 142.328125 C 136.140625 135.257812 143.230469 130.488281 150.917969 130.445312 C 153.234375 130.429688 155.5625 130.339844 157.847656 130.886719 C 161.023438 133.460938 164.144531 136.105469 167.191406 138.832031 C 168.25 139.777344 168.933594 139.851562 170.03125 138.910156 C 173.136719 136.242188 176.125 133.445312 179.292969 130.855469 C 183.238281 129.960938 187.203125 130.117188 190.941406 131.507812 C 196.335938 133.507812 200.832031 136.675781 202.703125 142.546875 Z M 202.703125 142.546875 " fill-opacity="1" fill-rule="evenodd"/><path fill="#000000" d="M 202.703125 142.546875 C 200.769531 142.953125 199.886719 144.003906 199.578125 146.679688 C 199.21875 149.828125 197.621094 152.195312 195.003906 153.75 C 189.242188 157.164062 183.234375 157.117188 177.488281 153.566406 C 174.851562 151.9375 173.394531 149.519531 172.976562 146.441406 C 172.601562 143.691406 170.976562 141.992188 168.746094 141.898438 C 166.445312 141.808594 164.613281 143.484375 164.199219 146.335938 C 163.820312 148.9375 162.609375 150.953125 160.707031 152.71875 C 158.316406 154.933594 155.355469 155.617188 152.324219 155.992188 C 147.320312 156.613281 142.929688 155.21875 139.472656 151.390625 C 137.976562 149.730469 137.628906 147.605469 137.183594 145.511719 C 136.664062 143.097656 135.539062 142.230469 133.253906 142.328125 C 130.035156 142.835938 128.886719 144.375 129.179688 147.539062 C 129.628906 152.402344 131.808594 156.363281 135.609375 159.273438 C 137.136719 160.445312 137.640625 161.746094 137.914062 163.464844 C 138.851562 169.304688 141.214844 174.40625 145.90625 178.21875 C 146.414062 178.632812 146.78125 179.074219 147.027344 179.703125 C 147.921875 182.015625 149.160156 184.152344 150.503906 186.230469 C 153.023438 189.445312 156.007812 192.039062 159.84375 193.625 C 167.4375 196.773438 178.902344 196.039062 186.441406 186.40625 C 187.796875 184.167969 189.21875 181.96875 190.101562 179.480469 C 190.273438 178.996094 190.597656 178.65625 191 178.339844 C 196.039062 174.390625 198.40625 168.984375 199.273438 162.820312 C 199.476562 161.371094 200.058594 160.429688 201.214844 159.539062 C 205.089844 156.550781 207.449219 152.636719 207.929688 147.691406 C 208.304688 143.832031 206.546875 142.109375 202.703125 142.546875 Z M 202.703125 142.546875 " fill-opacity="1" fill-rule="evenodd"/><path fill="#000000" d="M 138.683594 119.105469 C 138.722656 117.328125 137.851562 115.917969 136.25 115.179688 C 128.296875 111.515625 120.328125 107.882812 112.332031 104.3125 C 110.546875 103.511719 108.820312 103.984375 107.523438 105.464844 C 106.285156 106.878906 106.140625 108.539062 106.972656 110.21875 C 107.527344 111.347656 108.550781 111.980469 109.675781 112.492188 C 114.429688 114.636719 119.171875 116.808594 124.042969 119.027344 C 123.105469 119.691406 122.296875 120.089844 121.390625 120.292969 C 117.507812 122.160156 113.621094 124.03125 109.738281 125.898438 C 106.855469 127.285156 105.761719 129.648438 106.90625 132.03125 C 108.027344 134.363281 110.453125 134.988281 113.300781 133.675781 C 118.375 131.335938 123.449219 128.996094 128.519531 126.65625 C 131.058594 125.425781 133.601562 124.199219 136.140625 122.96875 C 137.75 122.1875 138.644531 120.867188 138.683594 119.105469 Z M 138.683594 119.105469 " fill-opacity="1" fill-rule="evenodd"/><path fill="#000000" d="M 232.394531 125.925781 C 227.628906 123.707031 222.875 121.46875 217.78125 119.078125 C 220.894531 117.699219 223.667969 116.472656 226.441406 115.25 C 228.683594 114.191406 230.949219 113.191406 233.15625 112.066406 C 235.347656 110.949219 236.128906 108.617188 235.160156 106.472656 C 234.195312 104.347656 231.894531 103.351562 229.628906 104.359375 C 221.679688 107.902344 213.769531 111.535156 205.847656 115.152344 C 204.207031 115.902344 203.375 117.25 203.386719 119.054688 C 203.394531 120.851562 204.238281 122.148438 205.867188 122.941406 C 206.8125 123.402344 207.730469 123.921875 208.660156 124.414062 C 209.121094 124.582031 209.597656 124.714844 210.039062 124.921875 C 216.378906 127.886719 222.710938 130.871094 229.050781 133.835938 C 230.695312 134.605469 232.335938 134.675781 233.863281 133.542969 C 235.253906 132.515625 235.703125 131.082031 235.46875 129.414062 C 235.210938 127.582031 233.941406 126.644531 232.394531 125.925781 Z M 232.394531 125.925781 " fill-opacity="1" fill-rule="evenodd"/><path fill="#000000" d="M 168.109375 140.199219 C 168.695312 140.699219 169.023438 140.472656 169.503906 140.046875 C 172.523438 137.378906 175.566406 134.746094 178.609375 132.105469 C 179 131.769531 179.292969 131.398438 179.292969 130.855469 C 178.558594 129.773438 177.40625 129.414062 176.230469 129.113281 C 171.765625 127.96875 167.253906 127.972656 162.738281 128.714844 C 160.945312 129.007812 159.066406 129.230469 157.847656 130.882812 C 157.976562 131.199219 158.023438 131.617188 158.257812 131.816406 C 161.527344 134.625 164.832031 137.390625 168.109375 140.199219 Z M 168.109375 140.199219 " fill-opacity="1" fill-rule="evenodd"/><path fill="#f75b63" d="M 185.125 174.386719 C 183.0625 185.390625 172.488281 191.859375 162.59375 187.988281 C 156.46875 185.59375 153.390625 180.582031 151.980469 174.378906 C 154.582031 171.269531 158.296875 170.414062 161.960938 169.65625 C 169.441406 168.117188 176.453125 169.960938 183.257812 172.996094 C 183.996094 173.324219 184.496094 173.929688 185.125 174.386719 Z M 185.125 174.386719 " fill-opacity="1" fill-rule="evenodd"/><path fill="#f78a7d" d="M 185.125 174.386719 C 181.265625 172.875 177.507812 171.140625 173.378906 170.332031 C 165.675781 168.828125 158.550781 170.046875 151.976562 174.378906 C 153.109375 170.941406 154.921875 167.800781 156.292969 164.46875 C 156.550781 163.84375 157.101562 163.78125 157.652344 163.617188 C 161.515625 162.457031 165.011719 160.644531 167.761719 157.621094 C 168.453125 156.859375 168.773438 157.066406 169.386719 157.703125 C 172.046875 160.460938 175.246094 162.359375 178.929688 163.425781 C 179.679688 163.644531 180.308594 163.902344 180.683594 164.757812 C 182.105469 167.992188 183.632812 171.179688 185.125 174.386719 Z M 185.125 174.386719 " fill-opacity="1" fill-rule="evenodd"/><path fill="#fcfcfc" d="M 189.953125 172.039062 C 188.75 169.5 187.617188 167.117188 186.433594 164.625 C 188.652344 164.425781 190.6875 164.292969 192.664062 163.730469 C 193.441406 163.511719 193.941406 163.628906 193.652344 164.597656 C 192.878906 167.226562 191.949219 169.777344 189.953125 172.039062 Z M 189.953125 172.039062 " fill-opacity="1" fill-rule="evenodd"/><path fill="#fbfbfb" d="M 147.109375 171.964844 C 145.160156 169.75 144.210938 167.28125 143.484375 164.699219 C 143.175781 163.609375 143.667969 163.546875 144.554688 163.742188 C 145.855469 164.03125 147.1875 164.449219 148.496094 164.40625 C 150.683594 164.332031 150.3125 165.183594 149.605469 166.550781 C 148.710938 168.261719 147.976562 170.054688 147.109375 171.964844 Z M 147.109375 171.964844 " fill-opacity="1" fill-rule="evenodd"/></svg>